<?xml version="1.0" encoding="utf-8"?>
<!-- Generator: Adobe Illustrator 26.2.1, SVG Export Plug-In . SVG Version: 6.00 Build 0)  -->
<svg version="1.1" id="Layer_1" xmlns="http://www.w3.org/2000/svg" xmlns:xlink="http://www.w3.org/1999/xlink" x="0px" y="0px"
	 viewBox="0 0 50 50" style="enable-background:new 0 0 284.7 97.4;" xml:space="preserve">
<style type="text/css">
	.st0{fill:#FFFFFF;}
	.st1{fill:#FFFFFF;stroke:#000000;stroke-width:0.9676;stroke-miterlimit:10;}
	.st2{font-family:'Futura-Medium';}
	.st3{font-size:14.832px;}
	.st4{fill:#FFFFFF;stroke:#000000;stroke-width:0.6307;stroke-miterlimit:10;}
</style>
<g>
	<g>
		<g>
			<g>
				<polygon points="-233.3,105.2 -233.3,92.4 -239.7,105.2 -272.5,105.2 -272.5,28.4 -263.2,10 -248.7,0.3 -200.2,0.3 -200.2,91.9 
					-205.3,105.2 				"/>
				<g>
					<path d="M-200.6,0.8v91l-5,12.9h-27.2V90.4l-7.2,14.3h-32V28.5l9.2-18.2l14.3-9.6H-200.6 M-199.7-0.2h-1h-47.9h-0.3l-0.2,0.2
						l-14.3,9.6l-0.2,0.1l-0.1,0.2l-9.2,18.2l-0.1,0.2v0.2v76.2v1h1h32h0.6l0.3-0.5l5.3-10.7v10.2v1h1h27.2h0.7l0.2-0.6l5-12.9
						l0.1-0.2v-0.2v-91V-0.2L-199.7-0.2z"/>
				</g>
			</g>
			<g>
				<path class="st0" d="M-228.3,90.9V54.8h-6.2v36.1h-28.1V32.8l13.7-32.5h48.7v90.5H-228.3z M-228.3,36.4V24.7l-5.9,11.7H-228.3z"
					/>
				<path d="M-200.6,0.8v89.6h-27.2V54.3h-7.2v36.1h-27.2V32.9l13.6-32.1H-200.6 M-234.9,36.9h7.2V22.7L-234.9,36.9 M-199.7-0.2h-1
					h-47.9h-0.6l-0.2,0.6L-263,32.5l-0.1,0.2v0.2v57.5v1h1h27.2h1v-1V55.2h5.2v35.1v1h1h27.2h1v-1V0.8V-0.2L-199.7-0.2z M-233.4,36
					l4.6-9.2V36H-233.4L-233.4,36z"/>
			</g>
		</g>
		<g>
			<polygon points="-306.2,113.1 -306.2,92.3 -313.9,105.3 -344,105.3 -344,5.7 -336.1,0.3 -307.6,0.3 -307.6,36.5 -307.3,36.5 
				-307.3,6 -301.3,0.3 -272.2,0.3 -272.2,100.7 -278.5,113.1 			"/>
			<g>
				<path d="M-272.7,0.8v99.8l-6.1,12h-26.9V90.5l-8.4,14.3h-29.3V6l7.5-5.1h27.9V37h1.3V6.2l5.7-5.4H-272.7 M-271.8-0.2h-1h-28.4
					h-0.4l-0.3,0.3l-5.3,5.1V0.8v-1h-1H-336h-0.3l-0.2,0.2l-7.5,5.1l-0.4,0.3V6v98.9v1h1h29.3h0.6l0.3-0.5l6.6-11.3v18.5v1h1h26.9
					h0.6l0.3-0.5l6.1-12l0.1-0.2v-0.2V0.8V-0.2L-271.8-0.2z"/>
			</g>
		</g>
		<g>
			<polygon class="st0" points="-300.1,101.1 -300.1,54.8 -307.6,54.8 -307.6,91 -335.5,91 -335.5,0.3 -307.6,0.3 -307.6,36.5 
				-300.1,36.5 -300.1,0.3 -272.2,0.3 -272.2,101.1 			"/>
			<path d="M-272.7,0.8v99.8h-26.9V54.3h-8.4v36.2H-335V0.8h26.9V37h8.4V0.8H-272.7 M-271.8-0.2h-1h-26.9h-1v1V36h-6.5V0.8v-1h-1
				H-335h-1v1v89.7v1h1h26.9h1v-1V55.3h6.5v45.3v1h1h26.9h1v-1V0.8V-0.2L-271.8-0.2z"/>
		</g>
		<g>
			<g>
				<polygon points="-184.1,113.1 -184.1,31.2 -200,31.2 -200,8.2 -193.7,0.3 -129.7,0.3 -129.7,24.9 -137,31.2 -147.4,31.2 
					-147.4,102.2 -154.6,113.1 				"/>
				<g>
					<path d="M-130.2,0.8v23.8l-7,6.1h-10.7V102l-7,10.5h-28.8V30.7h-15.9V8.3l6-7.5H-130.2 M-129.2-0.2h-1h-63.3h-0.5l-0.3,0.4
						l-6,7.5l-0.2,0.3v0.3v22.4v1h1h14.9v80.9v1h1h28.8h0.5l0.3-0.4l7-10.5l0.2-0.2V102V31.7h9.8h0.4l0.3-0.2l7-6.1l0.3-0.3v-0.4
						V0.8V-0.2L-129.2-0.2z"/>
				</g>
			</g>
			<g>
				<polygon class="st0" points="-175.3,101.1 -175.3,23.7 -193,23.7 -193,0.3 -129.7,0.3 -129.7,23.7 -147.4,23.7 -147.4,101.1 
									"/>
				<path d="M-130.2,0.8v22.4h-17.7v77.4h-26.9V23.2h-17.7V0.8H-130.2 M-129.2-0.2h-1h-62.3h-1v1v22.4v1h1h16.7v76.4v1h1h26.9h1v-1
					V24.2h16.7h1v-1V0.8V-0.2L-129.2-0.2z"/>
			</g>
		</g>
		<g>
			<g>
				<polygon points="-397.1,113.1 -397.1,31.2 -413.2,31.2 -413.2,8.1 -406.7,0.3 -342.7,0.3 -342.7,23.4 -349.9,31.2 -360.4,31.2 
					-360.4,102.2 -367.6,113.1 				"/>
				<g>
					<path d="M-343.2,0.8v22.4l-7,7.5h-10.7V102l-7,10.5h-28.8V30.7h-16.1V8.3l6.3-7.5H-343.2 M-342.2-0.2h-1h-63.3h-0.5l-0.3,0.3
						l-6.3,7.5l-0.2,0.3v0.4v22.4v1h1h15.2v80.9v1h1h28.8h0.5l0.3-0.4l7-10.5l0.2-0.2V102V31.7h9.8h0.4l0.3-0.3l7-7.5l0.3-0.3v-0.4
						V0.8V-0.2L-342.2-0.2z"/>
				</g>
			</g>
			<g>
				<polygon class="st0" points="-388.3,101.1 -388.3,23.7 -406,23.7 -406,0.3 -342.7,0.3 -342.7,23.7 -360.4,23.7 -360.4,101.1 
									"/>
				<path d="M-343.2,0.8v22.4h-17.7v77.4h-26.9V23.2h-17.7V0.8H-343.2 M-342.2-0.2h-1h-62.3h-1v1v22.4v1h1h16.7v76.4v1h1h26.9h1v-1
					V24.2h16.7h1v-1V0.8V-0.2L-342.2-0.2z"/>
			</g>
		</g>
	</g>
	<g>
		<rect x="-413.2" y="218.8" width="283.5" height="24"/>
		<g>
			<text transform="matrix(1 0 0 1 -405.5247 234.0913)" class="st0 st2" style="font-size:10.642px;">The Health, Aging and Technology Lab: Design Space</text>
		</g>
	</g>
	<g>
		<g>
			<g>
				<polygon points="-183.8,209.8 -183.8,127.8 -176.9,121.6 -130.3,121.6 -130.3,141 -136.1,149.8 -153.2,149.8 -153.2,155 
					-130.3,155 -130.3,170.4 -136.1,178.3 -153.2,178.3 -153.2,183.1 -129.7,183.1 -129.7,201.8 -135.5,209.8 				"/>
				<g>
					<path d="M-130.8,122v18.8l-5.6,8.4h-17.3v6.2h22.9v14.8l-5.6,7.6h-17.3v5.8h23.5v18.1l-5.5,7.7h-47.6V128l6.6-6H-130.8
						 M-129.8,121.1h-1h-46h-0.4l-0.3,0.3l-6.6,6l-0.3,0.3v0.4v81.3v1h1h47.6h0.5l0.3-0.4l5.5-7.7l0.2-0.3v-0.3v-18.1v-1h-1h-22.5
						v-3.8h16.4h0.5l0.3-0.4l5.6-7.6l0.2-0.3v-0.3v-14.8v-1h-1h-21.9v-4.2h16.4h0.5l0.3-0.4l5.6-8.4l0.2-0.2v-0.3V122V121.1
						L-129.8,121.1z"/>
				</g>
			</g>
			<g>
				<polygon class="st0" points="-174.7,202.2 -174.7,121.6 -130.3,121.6 -130.3,140.4 -152.2,140.4 -152.2,154.5 -130.3,154.5 
					-130.3,169.7 -152.2,169.7 -152.2,183.3 -130.3,183.3 -130.3,202.2 				"/>
				<path d="M-130.8,122v17.9h-21.9v15h21.9v14.3h-21.9v14.6h21.9v17.9h-21.9h-21.5V122h21.5H-130.8 M-129.8,121.1h-1h-21.9h-21.5
					h-1v1v79.6v1h1h21.5h21.9h1v-1v-17.9v-1h-1h-21v-12.6h21h1v-1V155v-1h-1h-21v-13.1h21h1v-1V122V121.1L-129.8,121.1z"/>
			</g>
		</g>
		<g>
			<g>
				<polygon points="-269.2,205.5 -269.2,195.7 -274.1,205.5 -300.3,205.5 -300.3,144.1 -292.9,129.7 -281.4,121.6 -242.8,121.6 
					-242.8,194.8 -246.9,205.5 				"/>
				<g>
					<path d="M-243.3,122v72.7l-4,10.3h-21.5v-11.4l-5.7,11.4h-25.3v-60.9l7.3-14.1l11.3-8H-243.3 M-242.3,121.1h-1h-37.9h-0.3
						l-0.3,0.2l-11.3,8l-0.2,0.1l-0.1,0.2l-7.3,14.1l-0.1,0.2v0.2v60.9v1h1h25.3h0.6l0.3-0.5l3.8-7.7v7.3v1h1h21.5h0.7l0.2-0.6
						l4-10.3l0.1-0.2v-0.2V122V121.1L-242.3,121.1z"/>
				</g>
			</g>
			<g>
				<path class="st0" d="M-265.3,194.1v-28.8h-4.7v28.8h-22.5v-46.5l10.9-26h38.7v72.5H-265.3z M-265.3,150.4v-8.8l-4.4,8.8H-265.3z
					"/>
				<path d="M-243.3,122v71.6h-21.5v-28.8h-5.7v28.8H-292v-45.9l10.7-25.6H-243.3 M-270.5,150.9h5.7v-11.4L-270.5,150.9
					 M-242.3,121.1h-1h-37.9h-0.6l-0.2,0.6l-10.7,25.6l-0.1,0.2v0.2v45.9v1h1h21.5h1v-1v-27.9h3.7v27.9v1h1h21.5h1v-1V122V121.1
					L-242.3,121.1z M-268.9,149.9l3.1-6.3v6.3H-268.9L-268.9,149.9z"/>
			</g>
		</g>
		<g>
			<g>
				<polygon points="-356.4,205.7 -356.4,129.5 -348.1,121.6 -306.1,121.6 -299.6,128 -299.6,162.8 -315.3,178.9 -325.9,178.9 
					-325.9,195.4 -334.5,205.7 				"/>
				<g>
					<path d="M-306.3,122l6.2,6.2v34.4l-15.4,15.8h-10.9v16.9l-8.4,10H-356v-75.5l8.1-7.7h6.4H-306.3 M-305.9,121.1h-0.4h-35.3h-6.4
						h-0.4l-0.3,0.3l-8.1,7.7l-0.3,0.3v0.4v75.5v1h1h21.2h0.5l0.3-0.3l8.4-10l0.2-0.3v-0.4v-15.9h9.9h0.4l0.3-0.3l15.4-15.8l0.3-0.3
						v-0.4v-34.4v-0.4l-0.3-0.3l-6.2-6.2L-305.9,121.1L-305.9,121.1z"/>
				</g>
			</g>
			<path class="st1" d="M-306.3,122h-41.6v73.2h21.5v-26.5h20.1l6.2-6.2v-34.4L-306.3,122z M-318.5,151h-7.9v-10.8h7.9V151z"/>
		</g>
		<g>
			<g>
				<polygon points="-235.4,205.7 -242,199.2 -242,134.9 -227.1,121.6 -191.4,121.6 -184.9,128 -184.9,153.7 -190.3,160.9 
					-229.9,160.8 -229.9,173.1 -217.2,177.2 -205.5,166.6 -184.9,166.6 -184.9,191.7 -196.9,205.7 				"/>
				<g>
					<path d="M-191.6,122l6.2,6.2v25.3l-5.1,7l-39.8-0.2v13.2l13.3,4.2l11.8-10.6h19.9v24.4l-11.7,13.7h-38.1l-6.3-6.3v-63.9
						l14.6-13H-191.6 M-191.2,121.1h-0.4h-35.3h-0.4l-0.3,0.2l-14.6,13l-0.3,0.3v0.4V199v0.4l0.3,0.3l6.3,6.3l0.3,0.3h0.4h38.1h0.4
						l0.3-0.3l11.7-13.7l0.2-0.3v-0.4v-24.4v-1h-1h-19.9h-0.4l-0.3,0.2l-11.4,10.2l-12.1-3.9v-11.5l38.8,0.2l0.5,0l0.3-0.4l5.1-7
						l0.2-0.3v-0.3v-25.3v-0.4l-0.3-0.3l-6.2-6.2L-191.2,121.1L-191.2,121.1z"/>
				</g>
			</g>
			<g>
				<polygon class="st0" points="-227.2,197.9 -233.7,191.4 -233.7,128.1 -227.1,121.6 -190.7,121.6 -184.9,128 -184.9,152.8 
					-204.3,152.8 -204.3,141.7 -211.2,141.7 -211.2,178 -204.3,178 -204.3,166.6 -184.9,166.6 -184.9,191.3 -185.1,191.6 
					-190.7,197.9 				"/>
				<path d="M-190.9,122l5.5,6.2v24.2h-18.4v-11.1h-7.9v37.3h7.9v-11.4h18.4v24.1v0.1l-5.5,6.2h-36l-6.3-6.3v-62.9l6.4-6.3H-190.9
					 M-190.5,121.1h-0.4h-35.9h-0.4l-0.3,0.3l-6.4,6.3l-0.3,0.3v0.4v62.9v0.4l0.3,0.3l6.3,6.3l0.3,0.3h0.4h36h0.4l0.3-0.3l5.5-6.2
					l0.2-0.3v-0.4v-0.1v-24.1v-1h-1h-18.4h-1v1v10.4h-6v-35.3h6v10.2v1h1h18.4h1v-1v-24.2v-0.4l-0.2-0.3l-5.5-6.2L-190.5,121.1
					L-190.5,121.1z"/>
			</g>
		</g>
		<g>
			<g>
				<polygon points="-406.7,209.8 -413.2,203.3 -413.2,176.2 -407.5,176.2 -413.2,170.6 -413.2,135.3 -406.1,128.1 -399.6,121.6 
					-363.9,121.6 -357.5,128 -357.5,147.2 -362.7,154.2 -357.5,159.8 -357.5,195.8 -369.4,209.8 				"/>
				<g>
					<path d="M-364.1,122l6.2,6.2v18.9l-5.3,7.2l5.3,5.7v35.7l-11.7,13.7h-36.8l-6.3-6.3v-26.4h6.4l-6.4-6.4v-34.9l6.9-7.1l6.4-6.4
						H-364.1 M-363.7,121.1h-0.4h-35.3h-0.4l-0.3,0.3l-6.4,6.4l-6.9,7.1l-0.3,0.3v0.4v34.9v0.4l0.3,0.3l4.7,4.7h-4h-1v1v26.4v0.4
						l0.3,0.3l6.3,6.3l0.3,0.3h0.4h36.8h0.4l0.3-0.3l11.7-13.7l0.2-0.3v-0.4V160v-0.4l-0.3-0.3l-4.8-5.1l4.8-6.6l0.2-0.3v-0.3v-18.9
						v-0.4l-0.3-0.3l-6.2-6.2L-363.7,121.1L-363.7,121.1z"/>
				</g>
			</g>
			<g>
				<g>
					<polygon class="st0" points="-399.7,202 -406.3,195.5 -406.3,177.3 -383.8,177.3 -383.8,184 -376.8,184 -376.8,171.3 
						-399.6,171.3 -406.3,164.6 -406.3,128.2 -399.6,121.6 -363.9,121.6 -357.5,128 -357.5,146.4 -376.8,146.4 -376.8,141.4 
						-383.8,141.4 -383.8,153.8 -363.1,153.8 -357.5,159.8 -357.5,195.5 -363.3,202 					"/>
					<path d="M-364.1,122l6.2,6.2v17.8h-18.4v-5h-7.9v13.3h21l5.3,5.7v35.3l-5.5,6.3h-36l-6.3-6.3v-17.5h21.5v6.7h7.9v-13.7h-23.1
						l-6.4-6.4v-36.1l6.4-6.4H-364.1 M-363.7,121.1h-0.4h-35.3h-0.4l-0.3,0.3l-6.4,6.4l-0.3,0.3v0.4v36.1v0.4l0.3,0.3l6.4,6.4
						l0.3,0.3h0.4h22.1v11.8h-6v-5.7v-1h-1h-21.5h-1v1v17.5v0.4l0.3,0.3l6.3,6.3l0.3,0.3h0.4h36h0.4l0.3-0.3l5.5-6.3l0.2-0.3v-0.4
						V160v-0.4l-0.3-0.3l-5.3-5.7l-0.3-0.3h-0.4h-20v-11.4h6v4v1h1h18.4h1v-1v-17.8v-0.4l-0.3-0.3l-6.2-6.2L-363.7,121.1
						L-363.7,121.1z"/>
				</g>
			</g>
		</g>
	</g>
</g>
<g>
	<g>
		<g>
			<polygon points="226.7,57.7 226.7,51.2 223.5,57.7 205.5,57.7 205.5,15.8 210.5,5.7 218.5,0.4 245,0.4 245,50.4 242.1,57.7 			
				"/>
			<g>
				<path d="M244.6,0.8v49.5l-2.7,7h-14.7v-7.8l-3.9,7.8h-17.4V15.9l5-9.9l7.7-5.2H244.6 M245.4,0h-0.8h-26h-0.2l-0.2,0.1l-7.7,5.2
					l-0.2,0.1l-0.1,0.2l-5,9.9l-0.1,0.2v0.2v41.4v0.8h0.8h17.4h0.5l0.2-0.5l2.3-4.7v4.3v0.8h0.8h14.7h0.6l0.2-0.5l2.7-7l0.1-0.1
					v-0.2V0.8V0L245.4,0z"/>
			</g>
		</g>
		<g>
			<path class="st0" d="M229.4,49.9V30.3h-3.1v19.6h-15.6V18.2l7.5-17.8H245v49.5H229.4z M229.4,20v-5.6l-2.8,5.6H229.4z"/>
			<path d="M244.6,0.8v48.7h-14.7V29.9H226v19.6h-14.7V18.3l7.4-17.4H244.6 M226,20.4h3.9v-7.8L226,20.4 M245.4,0h-0.8h-26h-0.5
				l-0.2,0.5l-7.4,17.4l-0.1,0.2v0.2v31.3v0.8h0.8H226h0.8v-0.8V30.7h2.3v18.8v0.8h0.8h14.7h0.8v-0.8V0.8V0L245.4,0z M227.3,19.6
				l1.8-3.5v3.5H227.3L227.3,19.6z"/>
		</g>
	</g>
	<g>
		<g>
			<polygon points="124.7,62 124.7,17.5 116.1,17.5 116.1,4.8 119.6,0.4 154.5,0.4 154.5,14 150.5,17.5 144.9,17.5 144.9,56 141,62 
							"/>
			<g>
				<path d="M154.1,0.8v13l-3.8,3.3h-5.8v38.8l-3.8,5.7h-15.6V17.1h-8.6V4.9l3.3-4.1H154.1 M155,0h-0.8h-34.3h-0.4l-0.2,0.3
					l-3.3,4.1l-0.2,0.2v0.3v12.2v0.8h0.8h7.8v43.7v0.8h0.8h15.6h0.4l0.2-0.4l3.8-5.7l0.1-0.2v-0.2v-38h5h0.3l0.2-0.2l3.8-3.3
					l0.3-0.2v-0.4v-13V0L155,0z"/>
			</g>
		</g>
		<g>
			<polygon class="st0" points="129.5,55.5 129.5,13.4 119.9,13.4 119.9,0.4 154.5,0.4 154.5,13.4 144.9,13.4 144.9,55.5 			"/>
			<path d="M154.1,0.8V13h-9.6v42.1h-14.6V13h-9.6V0.8H154.1 M155,0h-0.8h-33.8h-0.8v0.8V13v0.8h0.8h8.8v41.3v0.8h0.8h14.6h0.8v-0.8
				V13.8h8.8h0.8V13V0.8V0L155,0z"/>
		</g>
	</g>
	<g>
		<g>
			<polygon points="98,57.7 98,51.2 94.8,57.7 76.8,57.7 76.8,15.8 81.9,5.7 89.8,0.4 116.3,0.4 116.3,50.4 113.5,57.7 			"/>
			<g>
				<path d="M115.9,0.8v49.5l-2.7,7H98.5v-7.8l-3.9,7.8H77.2V15.9l5-9.9l7.7-5.2H115.9 M116.7,0h-0.8h-26h-0.2l-0.2,0.1l-7.7,5.2
					l-0.2,0.1l-0.1,0.2l-5,9.9l-0.1,0.2v0.2v41.4v0.8h0.8h17.4h0.5l0.2-0.5l2.3-4.7v4.3v0.8h0.8h14.7h0.6l0.2-0.5l2.7-7l0.1-0.1
					v-0.2V0.8V0L116.7,0z"/>
			</g>
		</g>
		<g>
			<path class="st0" d="M100.8,49.9V30.3h-3.1v19.6H82.1V18.2l7.5-17.8h26.7v49.5H100.8z M100.8,20v-5.6L97.9,20H100.8z"/>
			<path d="M115.9,0.8v48.7h-14.7V29.9h-3.9v19.6H82.5V18.3l7.4-17.4H115.9 M97.3,20.4h3.9v-7.8L97.3,20.4 M116.7,0h-0.8h-26h-0.5
				l-0.2,0.5l-7.4,17.4l-0.1,0.2v0.2v31.3v0.8h0.8h14.7h0.8v-0.8V30.7h2.3v18.8v0.8h0.8h14.7h0.8v-0.8V0.8V0L116.7,0z M98.6,19.6
				l1.8-3.5v3.5H98.6L98.6,19.6z"/>
		</g>
	</g>
	<g>
		<polygon points="58.5,62 58.5,51.1 54.5,57.8 38,57.8 38,3.4 42.3,0.4 58,0.4 58,3.5 61.2,0.4 77.2,0.4 77.2,55.2 73.7,62 		"/>
		<g>
			<path d="M76.8,0.8v54.3l-3.3,6.5H58.9v-12l-4.6,7.8H38.4V3.6l4.1-2.8h15.1v19.7h0.7V3.8l3.1-2.9H76.8 M77.6,0h-0.8H61.4H61
				l-0.2,0.2l-2.4,2.3V0.8V0h-0.8H42.5h-0.3L42,0.1l-4.1,2.8l-0.4,0.2v0.4v53.8v0.8h0.8h15.9h0.5l0.2-0.4l3.1-5.2v9v0.8h0.8h14.6H74
				l0.2-0.4l3.3-6.5l0.1-0.2v-0.2V0.8V0L77.6,0z"/>
		</g>
	</g>
	<g>
		<polygon class="st0" points="61.8,55.5 61.8,30.3 58,30.3 58,50 42.6,50 42.6,0.4 58,0.4 58,20.1 61.8,20.1 61.8,0.4 77.2,0.4 
			77.2,55.5 		"/>
		<path d="M76.8,0.8v54.3H62.2V29.9h-4.6v19.7H43V0.8h14.6v19.7h4.6V0.8H76.8 M77.6,0h-0.8H62.2h-0.8v0.8v18.8h-3V0.8V0h-0.8H43
			h-0.8v0.8v48.8v0.8H43h14.6h0.8v-0.8V30.7h3v24.4v0.8h0.8h14.6h0.8v-0.8V0.8V0L77.6,0z"/>
	</g>
	<g>
		<g>
			<polygon points="9.2,62 9.2,17.5 0.4,17.5 0.4,4.8 4,0.4 39,0.4 39,13.2 35,17.5 29.4,17.5 29.4,56 25.4,62 			"/>
			<g>
				<path d="M38.6,0.8V13l-3.8,4.1H29v38.8l-3.8,5.7H9.6V17.1H0.8V4.9l3.4-4.1H38.6 M39.4,0h-0.8H4.2H3.8L3.6,0.3L0.2,4.4L0,4.6v0.3
					v12.2v0.8h0.8h7.9v43.7v0.8h0.8h15.6h0.4l0.2-0.4l3.8-5.7l0.1-0.2v-0.2v-38h5h0.4l0.2-0.3l3.8-4.1l0.2-0.2V13V0.8V0L39.4,0z"/>
			</g>
		</g>
		<g>
			<polygon class="st0" points="13.9,55.5 13.9,13.4 4.3,13.4 4.3,0.4 39,0.4 39,13.4 29.4,13.4 29.4,55.5 			"/>
			<path d="M38.6,0.8V13H29v42.1H14.3V13H4.7V0.8H38.6 M39.4,0h-0.8H4.7H3.9v0.8V13v0.8h0.8h8.8v41.3v0.8h0.8H29h0.8v-0.8V13.8h8.8
				h0.8V13V0.8V0L39.4,0z"/>
		</g>
	</g>
	<g>
		<g>
			<polygon points="171.4,60.7 171.4,4.7 175.4,0.4 190.6,0.4 190.6,42.3 206.6,42.3 206.6,55.2 202.6,60.7 			"/>
			<g>
				<path d="M190.2,0.8v41.9h16V55l-3.8,5.2h-30.6V4.9l3.8-4.1H190.2 M191,0h-0.8h-14.6h-0.4L175,0.3l-3.8,4.1L171,4.6v0.3v55.4v0.8
					h0.8h30.6h0.4l0.2-0.3l3.8-5.2l0.2-0.2V55V42.7v-0.8h-0.8H191V0.8V0L191,0z"/>
			</g>
		</g>
		<g>
			<polygon class="st0" points="175.8,55.4 175.8,0.4 191.2,0.4 191.2,42.4 206.2,42.4 206.2,55.4 			"/>
			<path d="M190.8,0.8v42h14.9V55h-29.6V0.8H190.8 M191.6,0h-0.8h-14.6h-0.8v0.8V55v0.8h0.8h29.6h0.8V55V42.9V42h-0.8h-14.1V0.8V0
				L191.6,0z"/>
		</g>
	</g>
	<g>
		<g>
			<g>
				<polygon points="245.2,57.7 245.2,5.2 250.8,0.4 284.7,0.4 284.7,17.5 280.5,21 284.7,24.4 284.7,50.2 279.1,57.7 				"/>
			</g>
			<g>
				<path d="M284.3,0.8v16.5l-4.4,3.6l4.4,3.6V50l-5.4,7.3h-33.3V5.4l5.4-4.6H284.3 M285.1,0h-0.8H251h-0.3l-0.2,0.2l-5.4,4.6
					L244.8,5v0.4v51.9v0.8h0.8h33.3h0.4l0.2-0.3l5.4-7.3l0.2-0.2V50V24.6v-0.4l-0.3-0.2l-3.6-3l3.6-3l0.3-0.2v-0.4V0.8V0L285.1,0z"
					/>
			</g>
		</g>
		<g>
			<g>
				<path class="st0" d="M251.2,49.9V0.4h33.3v17.1l-3.4,3.4l3.4,3.4v25.5H251.2z M271.2,37.5v-7.2h-4.6v7.2H271.2z M271.2,20v-7.2
					h-4.6V20H271.2z"/>
				<path d="M284.1,0.8v16.5l-3.6,3.6l3.6,3.6v25h-32.5V0.8H284.1 M266.2,20.5h5.4v-8h-5.4V20.5 M266.2,37.9h5.4v-8h-5.4V37.9
					 M285,0h-0.8h-32.5h-0.8v0.8v48.7v0.8h0.8h32.5h0.8v-0.8v-25v-0.3l-0.2-0.2l-3-3l3-3l0.2-0.2v-0.3V0.8V0L285,0z M267.1,13.2h3.8
					v6.4h-3.8V13.2L267.1,13.2z M267.1,30.7h3.8v6.4h-3.8V30.7L267.1,30.7z"/>
			</g>
		</g>
	</g>
	<g>
		<rect x="1.9" y="70.1" width="282.3" height="27.2"/>
		<g>
			<text transform="matrix(0.9981 0 0 1 7.9231 88.2033)" class="st0 st2 st3">The Health, Aging and Technology Lab</text>
		</g>
	</g>
</g>
<g>
	<g>
		<g>
			<polygon points="97.2,224.7 97.2,190.2 90.5,190.2 90.5,180.3 93.2,177 120.3,177 120.3,187.5 117.2,190.2 112.8,190.2 
				112.8,220 109.8,224.7 			"/>
			<g>
				<path d="M120,177.3v10.1l-2.9,2.6h-4.5v30.1l-2.9,4.4H97.5v-34.5h-6.7v-9.5l2.5-3.2H120 M120.6,176.6H120H93.4h-0.3l-0.2,0.2
					l-2.5,3.2l-0.1,0.2v0.2v9.5v0.6h0.6h6v33.9v0.6h0.6h12.1h0.3l0.2-0.3l2.9-4.4l0.1-0.2v-0.2v-29.4h3.9h0.2l0.2-0.2l2.9-2.6
					l0.2-0.2v-0.3v-10.1V176.6L120.6,176.6z"/>
			</g>
		</g>
		<g>
			<polygon class="st0" points="100.9,219.7 100.9,187 93.4,187 93.4,177 120.3,177 120.3,187 112.8,187 112.8,219.7 			"/>
			<path d="M120,177.3v9.5h-7.4v32.6h-11.3v-32.6h-7.4v-9.5H120 M120.6,176.6H120H93.8h-0.6v0.6v9.5v0.6h0.6h6.8v32v0.6h0.6h11.3
				h0.6v-0.6v-32h6.8h0.6v-0.6v-9.5V176.6L120.6,176.6z"/>
		</g>
	</g>
	<g>
		<g>
			<polygon points="255.3,224.7 255.3,180.4 259.1,177 284.3,177 284.3,187.5 281.1,192.3 272,192.3 272,195 284.3,195 284.3,203.4 
				281.1,207.7 272,207.7 272,210.2 284.6,210.2 284.6,220.4 281.5,224.7 			"/>
			<g>
				<path d="M284,177.3v10.2l-3,4.5h-9.3v3.3H284v8l-3,4.1h-9.3v3.1h12.6v9.8l-3,4.1h-25.7v-43.9l3.6-3.2H284 M284.6,176.6H284
					h-24.8H259l-0.2,0.2l-3.6,3.2l-0.2,0.2v0.3v43.9v0.6h0.6h25.7h0.3l0.2-0.3l3-4.1l0.1-0.2v-0.2v-9.8v-0.6h-0.6h-12V208h8.7h0.3
					l0.2-0.3l3-4.1l0.1-0.2v-0.2v-8v-0.6H284h-11.7v-2.1h8.7h0.3l0.2-0.3l3-4.5l0.1-0.2v-0.2v-10.2V176.6L284.6,176.6z"/>
			</g>
		</g>
		<g>
			<polygon class="st0" points="260.3,220.6 260.3,177 284.3,177 284.3,187.2 272.5,187.2 272.5,194.7 284.3,194.7 284.3,203 
				272.5,203 272.5,210.3 284.3,210.3 284.3,220.6 			"/>
			<path d="M284,177.3v9.7h-11.8v8.1H284v7.7h-11.8v7.9H284v9.7h-11.8h-11.6v-43h11.6H284 M284.6,176.6H284h-11.8h-11.6h-0.6v0.6v43
				v0.6h0.6h11.6H284h0.6v-0.6v-9.7V210H284h-11.2v-6.6H284h0.6v-0.6V195v-0.6H284h-11.2v-6.8H284h0.6v-0.6v-9.7V176.6L284.6,176.6z
				"/>
		</g>
	</g>
	<g>
		<g>
			<polygon points="209.3,222.4 209.3,217.2 206.8,222.4 192.6,222.4 192.6,189.1 196.6,181.4 202.8,177 223.7,177 223.7,216.6 
				221.4,222.4 			"/>
			<g>
				<path d="M223.4,177.3v39.2l-2.1,5.6h-11.6v-6.2l-3,6.2h-13.7v-32.8l3.9-7.6l6.1-4.3H223.4 M224,176.6h-0.6h-20.4h-0.2l-0.2,0.1
					l-6.1,4.3l-0.1,0.1l-0.1,0.1l-3.9,7.6l-0.1,0.1v0.2v32.8v0.6h0.6h13.7h0.4l0.2-0.4l1.9-3.8v3.5v0.6h0.6h11.6h0.4l0.2-0.4
					l2.1-5.6l0-0.1v-0.1v-39.2V176.6L224,176.6z"/>
			</g>
		</g>
		<g>
			<path class="st0" d="M211.5,216.2v-15.6H209v15.6h-12.2V191l5.9-14.1h20.9v39.3H211.5z M211.5,192.5V188l-2.2,4.5H211.5z"/>
			<path d="M223.4,177.3v38.6h-11.6v-15.6h-3v15.6h-11.6v-24.8l5.8-13.8H223.4 M208.7,192.8h3v-6.1L208.7,192.8 M224,176.6h-0.6
				h-20.4h-0.4l-0.2,0.4l-5.8,13.8l0,0.1v0.1v24.8v0.6h0.6h11.6h0.6v-0.6V201h1.8v14.9v0.6h0.6h11.6h0.6v-0.6v-38.6V176.6L224,176.6
				z M209.7,192.2l1.4-2.8v2.8H209.7L209.7,192.2z"/>
		</g>
	</g>
	<g>
		<g>
			<polygon points="162.4,222.5 162.4,181.3 166.9,177 189.6,177 193.1,180.5 193.1,199.3 184.6,208 178.9,208 178.9,216.9 
				174.2,222.5 			"/>
			<g>
				<path d="M189.4,177.3l3.3,3.3v18.6l-8.3,8.5h-5.9v9.1l-4.5,5.4h-11.4v-40.8l4.3-4.1h3.4H189.4 M189.7,176.6h-0.3h-19H167h-0.3
					l-0.2,0.2l-4.3,4.1l-0.2,0.2v0.3v40.8v0.6h0.6h11.4h0.3l0.2-0.2l4.5-5.4l0.1-0.2v-0.2v-8.5h5.2h0.3l0.2-0.2l8.3-8.5l0.2-0.2
					v-0.3v-18.6v-0.3l-0.2-0.2l-3.3-3.3L189.7,176.6L189.7,176.6z"/>
			</g>
		</g>
		<path class="st4" d="M189.4,177.3H167v39.5h11.6v-14.3h10.9l3.3-3.3v-18.6L189.4,177.3z M182.9,192.9h-4.3v-5.8h4.3V192.9z"/>
	</g>
	<g>
		<g>
			<polygon points="227.6,222.5 224,218.9 224,184.2 232.1,177 251.3,177 254.8,180.5 254.8,194.4 251.9,198.3 230.6,198.2 
				230.6,204.8 237.4,207 243.7,201.3 254.8,201.3 254.8,214.9 248.4,222.5 			"/>
			<g>
				<path d="M251.2,177.3l3.3,3.3v13.7l-2.8,3.8l-21.4-0.1v7.1l7.2,2.3l6.3-5.7h10.7v13.2l-6.3,7.4h-20.5l-3.4-3.4v-34.5l7.9-7
					H251.2 M251.5,176.6h-0.3h-19H232l-0.2,0.2l-7.9,7l-0.2,0.2v0.3v34.5v0.3l0.2,0.2l3.4,3.4l0.2,0.2h0.3h20.5h0.3l0.2-0.2l6.3-7.4
					l0.2-0.2v-0.2v-13.2V201h-0.6h-10.7h-0.2l-0.2,0.2l-6.1,5.5l-6.4-2v-6l20.8,0.1l0.3,0l0.2-0.3l2.8-3.8l0.1-0.2v-0.2v-13.7v-0.3
					l-0.2-0.2l-3.3-3.3L251.5,176.6L251.5,176.6z"/>
			</g>
		</g>
		<g>
			<polygon class="st0" points="232,218.3 228.5,214.7 228.5,180.5 232.1,177 251.7,177 254.8,180.5 254.8,194 244.3,194 
				244.3,187.9 240.7,187.9 240.7,207.4 244.3,207.4 244.3,201.3 254.8,201.3 254.8,214.7 254.8,214.8 251.7,218.3 			"/>
			<path d="M251.6,177.3l3,3.3v13h-9.9v-6h-4.3v20.1h4.3v-6.2h9.9v13v0.1l-3,3.3h-19.4l-3.4-3.4v-33.9l3.4-3.4H251.6 M251.8,176.6
				h-0.3h-19.4h-0.3l-0.2,0.2l-3.4,3.4l-0.2,0.2v0.3v33.9v0.3l0.2,0.2l3.4,3.4l0.2,0.2h0.3h19.4h0.3l0.2-0.2l3-3.3l0.2-0.2v-0.2
				v-0.1v-13V201h-0.6h-9.9H244v0.6v5.5h-3v-18.8h3v5.4v0.6h0.6h9.9h0.6v-0.6v-13v-0.2l-0.2-0.2l-3-3.3L251.8,176.6L251.8,176.6z"/>
		</g>
	</g>
	<g>
		<g>
			<polygon points="76.5,221.4 76.5,216.4 74,221.4 60,221.4 60,188.9 63.9,181.1 70.1,177 90.7,177 90.7,215.7 88.4,221.4 			"/>
			<g>
				<path d="M90.3,177.3v38.4l-2.1,5.4H76.8v-6l-3,6H60.3V189l3.9-7.7l6-4H90.3 M91,176.6h-0.6H70.2H70l-0.2,0.1l-6,4l-0.1,0.1
					l-0.1,0.1l-3.9,7.7l-0.1,0.1v0.2v32.1v0.6h0.6h13.5h0.4l0.2-0.3l1.8-3.6v3.4v0.6h0.6h11.4h0.4l0.2-0.4l2.1-5.4l0-0.1v-0.1v-38.4
					V176.6L91,176.6z"/>
			</g>
		</g>
		<g>
			<path class="st0" d="M78.6,215.3v-15.2h-2.4v15.2H64.2v-24.6L70,177h20.7v38.4H78.6z M78.6,192.2v-4.4l-2.2,4.4H78.6z"/>
			<path d="M90.3,177.3V215H78.9v-15.2h-3V215H64.5v-24.2l5.7-13.5H90.3 M75.9,192.5h3v-6L75.9,192.5 M91,176.6h-0.6H70.2h-0.4
				l-0.2,0.4l-5.7,13.5l0,0.1v0.1V215v0.6h0.6h11.4h0.6V215v-14.6h1.7V215v0.6h0.6h11.4H91V215v-37.8V176.6L91,176.6z M76.9,191.9
				l1.4-2.7v2.7H76.9L76.9,191.9z"/>
		</g>
	</g>
	<g>
		<polygon points="45.8,224.7 45.8,216.2 42.7,221.4 29.9,221.4 29.9,179.3 33.3,177 45.4,177 45.4,179.3 47.9,177 60.3,177 
			60.3,219.4 57.6,224.7 		"/>
		<g>
			<path d="M60,177.3v42.1l-2.6,5H46.1v-9.3l-3.6,6H30.2v-41.7l3.1-2.2h11.7v15.2h0.6v-13l2.4-2.3H60 M60.6,176.6H60h-12h-0.3
				l-0.2,0.2l-1.9,1.8v-1.3v-0.6h-0.6H33.4h-0.2l-0.2,0.1l-3.1,2.2l-0.3,0.2v0.3v41.7v0.6h0.6h12.3h0.4l0.2-0.3l2.4-4v7v0.6h0.6
				h11.3h0.4l0.2-0.3l2.6-5l0.1-0.1v-0.2v-42.1V176.6L60.6,176.6z"/>
		</g>
	</g>
	<g>
		<polygon class="st0" points="48.4,219.7 48.4,200.2 45.4,200.2 45.4,215.4 33.5,215.4 33.5,177 45.4,177 45.4,192.2 48.4,192.2 
			48.4,177 60.3,177 60.3,219.7 		"/>
		<path d="M60,177.3v42.1H48.7v-19.5h-3.6v15.2H33.8v-37.8h11.3v15.2h3.6v-15.2H60 M60.6,176.6H60H48.7H48v0.6v14.6h-2.3v-14.6v-0.6
			h-0.6H33.8h-0.6v0.6v37.8v0.6h0.6h11.3h0.6v-0.6v-14.6H48v18.9v0.6h0.6H60h0.6v-0.6v-42.1V176.6L60.6,176.6z"/>
	</g>
	<g>
		<g>
			<polygon points="7.6,224.7 7.6,190.2 0.8,190.2 0.8,180.3 3.6,177 30.7,177 30.7,186.8 27.6,190.2 23.2,190.2 23.2,220 
				20.2,224.7 			"/>
			<g>
				<path d="M30.4,177.3v9.5l-2.9,3.2h-4.5v30.1l-2.9,4.4H7.9v-34.5H1.1v-9.5l2.6-3.2H30.4 M31,176.6h-0.6H3.7H3.4l-0.2,0.2L0.6,180
					l-0.1,0.2v0.2v9.5v0.6h0.6h6.2v33.9v0.6h0.6H20h0.3l0.2-0.3l2.9-4.4l0.1-0.2v-0.2v-29.4h3.9h0.3l0.2-0.2l2.9-3.2L31,187v-0.2
					v-9.5V176.6L31,176.6z"/>
			</g>
		</g>
		<g>
			<polygon class="st0" points="11.3,219.7 11.3,187 3.8,187 3.8,177 30.7,177 30.7,187 23.2,187 23.2,219.7 			"/>
			<path d="M30.4,177.3v9.5h-7.4v32.6H11.6v-32.6H4.1v-9.5H30.4 M31,176.6h-0.6H4.1H3.5v0.6v9.5v0.6h0.6H11v32v0.6h0.6h11.3h0.6
				v-0.6v-32h6.8H31v-0.6v-9.5V176.6L31,176.6z"/>
		</g>
	</g>
	<g>
		<rect x="0.8" y="229.5" width="283.2" height="19.8"/>
		<g>
			<text transform="matrix(0.9981 0 0 1 6.6856 242.6265)" class="st0 st2" style="font-size:10.7695px;">The Health, Aging and Technology Lab: Design Space</text>
		</g>
	</g>
	<g>
		<rect x="0.8" y="229.5" width="283.2" height="19.8"/>
		<g>
			<text transform="matrix(0.9981 0 0 1 6.6856 242.6265)" class="st0 st2" style="font-size:10.7695px;">The Health, Aging and Technology Lab: Design Space</text>
		</g>
	</g>
	<g>
		<g>
			<polygon points="135.2,224.7 131.6,221.1 131.6,206.5 134.6,206.5 131.6,203.5 131.6,184.4 135.4,180.5 139,177 158.2,177 
				161.7,180.5 161.7,190.9 159,194.6 161.7,197.6 161.7,217.1 155.3,224.7 			"/>
			<g>
				<path d="M158.1,177.3l3.3,3.3v10.2l-2.9,3.9l2.9,3.1V217l-6.3,7.4h-19.8l-3.4-3.4v-14.2h3.4l-3.4-3.4v-18.8l3.7-3.8l3.4-3.4
					H158.1 M158.4,176.6h-0.3h-19h-0.3l-0.2,0.2l-3.4,3.4l-3.7,3.8l-0.2,0.2v0.3v18.8v0.3l0.2,0.2l2.3,2.4h-1.9h-0.6v0.6V221v0.3
					l0.2,0.2l3.4,3.4l0.2,0.2h0.3h19.8h0.3l0.2-0.2l6.3-7.4l0.2-0.2V217v-19.3v-0.2l-0.2-0.2l-2.5-2.7l2.6-3.5l0.1-0.2v-0.2v-10.2
					v-0.3l-0.2-0.2l-3.3-3.3L158.4,176.6L158.4,176.6z"/>
			</g>
		</g>
		<g>
			<g>
				<polygon class="st0" points="138.9,220.5 135.4,216.9 135.4,207 147.6,207 147.6,210.7 151.2,210.7 151.2,203.9 139,203.9 
					135.4,200.3 135.4,180.6 139,177 158.2,177 161.7,180.5 161.7,190.5 151.2,190.5 151.2,187.8 147.6,187.8 147.6,194.4 
					158.7,194.4 161.7,197.6 161.7,216.9 158.6,220.5 				"/>
				<path d="M158.1,177.3l3.3,3.3v9.6h-9.9v-2.7h-4.3v7.2h11.3l2.9,3.1v19.1l-3,3.4H139l-3.4-3.4v-9.4h11.6v3.6h4.3v-7.4h-12.4
					l-3.4-3.4v-19.5l3.4-3.4H158.1 M158.4,176.6h-0.3h-19h-0.3l-0.2,0.2l-3.4,3.4l-0.2,0.2v0.3v19.5v0.3l0.2,0.2l3.4,3.4l0.2,0.2
					h0.3h11.8v6.1h-3v-3v-0.6h-0.6h-11.6H135v0.6v9.4v0.3l0.2,0.2l3.4,3.4l0.2,0.2h0.3h19.4h0.3l0.2-0.2l3-3.4l0.2-0.2v-0.2v-19.1
					v-0.2l-0.2-0.2l-2.9-3.1l-0.2-0.2h-0.3h-10.7v-5.9h3v2.1v0.6h0.6h9.9h0.6v-0.6v-9.6v-0.3l-0.2-0.2l-3.3-3.3L158.4,176.6
					L158.4,176.6z"/>
			</g>
		</g>
	</g>
</g>
</svg>
