<svg width="285" height="62" viewBox="0 0 285 62" fill="none" xmlns="http://www.w3.org/2000/svg">
<rect width="285" height="62" fill="white"/>
<g clip-path="url(#clip0_0_1)">
<path d="M226.7 57.7V51.2L223.5 57.7H205.5V15.8L210.5 5.7L218.5 0.4H245V50.4L242.1 57.7H226.7Z" fill="black"/>
<path d="M244.6 0.8V50.3L241.9 57.3H227.2V49.5L223.3 57.3H205.9V15.9L210.9 6L218.6 0.8H244.6ZM245.4 0H244.6H218.6H218.4L218.2 0.1L210.5 5.3L210.3 5.4L210.2 5.6L205.2 15.5L205.1 15.7V15.9V57.3V58.1H205.9H223.3H223.8L224 57.6L226.3 52.9V57.2V58H227.1H241.8H242.4L242.6 57.5L245.3 50.5L245.4 50.4V50.2V0.8V0Z" fill="black"/>
<path d="M229.4 49.9V30.3H226.3V49.9H210.7V18.2L218.2 0.4H245V49.9H229.4ZM229.4 20V14.4L226.6 20H229.4Z" fill="white"/>
<path d="M244.6 0.8V49.5H229.9V29.9H226V49.5H211.3V18.3L218.7 0.9H244.6V0.8ZM226 20.4H229.9V12.6L226 20.4ZM245.4 0H244.6H218.6H218.1L217.9 0.5L210.5 17.9L210.4 18.1V18.3V49.6V50.4H211.2H226H226.8V49.6V30.7H229.1V49.5V50.3H229.9H244.6H245.4V49.5V0.8V0ZM227.3 19.6L229.1 16.1V19.6H227.3Z" fill="black"/>
<path d="M124.7 62V17.5H116.1V4.8L119.6 0.4H154.5V14L150.5 17.5H144.9V56L141 62H124.7Z" fill="black"/>
<path d="M154.1 0.8V13.8L150.3 17.1H144.5V55.9L140.7 61.6H125.1V17.1H116.5V4.9L119.8 0.8H154.1ZM155 0H154.2H119.9H119.5L119.3 0.3L116 4.4L115.8 4.6V4.9V17.1V17.9H116.6H124.4V61.6V62.4H125.2H140.8H141.2L141.4 62L145.2 56.3L145.3 56.1V55.9V17.9H150.3H150.6L150.8 17.7L154.6 14.4L154.9 14.2V13.8V0.8V0H155Z" fill="black"/>
<path d="M129.5 55.5V13.4H119.9V0.4H154.5V13.4H144.9V55.5H129.5Z" fill="white"/>
<path d="M154.1 0.8V13H144.5V55.1H129.9V13H120.3V0.8H154.1ZM155 0H154.2H120.4H119.6V0.8V13V13.8H120.4H129.2V55.1V55.9H130H144.6H145.4V55.1V13.8H154.2H155V13V0.8V0Z" fill="black"/>
<path d="M98 57.7V51.2L94.8 57.7H76.8V15.8L81.9 5.7L89.8 0.4H116.3V50.4L113.5 57.7H98Z" fill="black"/>
<path d="M115.9 0.8V50.3L113.2 57.3H98.5V49.5L94.6 57.3H77.2V15.9L82.2 6L89.9 0.8H115.9ZM116.7 0H115.9H89.9H89.7L89.5 0.1L81.8 5.3L81.6 5.4L81.5 5.6L76.5 15.5L76.4 15.7V15.9V57.3V58.1H77.2H94.6H95.1L95.3 57.6L97.6 52.9V57.2V58H98.4H113.1H113.7L113.9 57.5L116.6 50.5L116.7 50.4V50.2V0.8V0Z" fill="black"/>
<path d="M100.8 49.9V30.3H97.7V49.9H82.1V18.2L89.6 0.4H116.3V49.9H100.8ZM100.8 20V14.4L97.9 20H100.8Z" fill="white"/>
<path d="M115.9 0.8V49.5H101.2V29.9H97.3V49.5H82.5V18.3L89.9 0.9H115.9V0.8ZM97.3 20.4H101.2V12.6L97.3 20.4ZM116.7 0H115.9H89.9H89.4L89.2 0.5L81.8 17.9L81.7 18.1V18.3V49.6V50.4H82.5H97.2H98V49.6V30.7H100.3V49.5V50.3H101.1H115.8H116.6V49.5V0.8V0H116.7ZM98.6 19.6L100.4 16.1V19.6H98.6Z" fill="black"/>
<path d="M58.5 62V51.1L54.5 57.8H38V3.4L42.3 0.4H58V3.5L61.2 0.4H77.2V55.2L73.7 62H58.5Z" fill="black"/>
<path d="M76.8 0.8V55.1L73.5 61.6H58.9V49.6L54.3 57.4H38.4V3.6L42.5 0.8H57.6V20.5H58.3V3.8L61.4 0.9H76.8V0.8ZM77.6 0H76.8H61.4H61L60.8 0.2L58.4 2.5V0.8V0H57.6H42.5H42.2L42 0.1L37.9 2.9L37.5 3.1V3.5V57.3V58.1H38.3H54.2H54.7L54.9 57.7L58 52.5V61.5V62.3H58.8H73.4H74L74.2 61.9L77.5 55.4L77.6 55.2V55V0.8V0Z" fill="black"/>
<path d="M61.8 55.5V30.3H58V50H42.6V0.4H58V20.1H61.8V0.4H77.2V55.5H61.8Z" fill="white"/>
<path d="M76.8 0.8V55.1H62.2V29.9H57.6V49.6H43V0.8H57.6V20.5H62.2V0.8H76.8ZM77.6 0H76.8H62.2H61.4V0.8V19.6H58.4V0.8V0H57.6H43H42.2V0.8V49.6V50.4H43H57.6H58.4V49.6V30.7H61.4V55.1V55.9H62.2H76.8H77.6V55.1V0.8V0Z" fill="black"/>
<path d="M9.19999 62V17.5H0.399994V4.8L3.99999 0.4H39V13.2L35 17.5H29.4V56L25.4 62H9.19999Z" fill="black"/>
<path d="M38.6 0.8V13L34.8 17.1H29V55.9L25.2 61.6H9.6V17.1H0.8V4.9L4.2 0.8H38.6ZM39.4 0H38.6H4.2H3.8L3.6 0.3L0.2 4.4L0 4.6V4.9V17.1V17.9H0.8H8.7V61.6V62.4H9.5H25.1H25.5L25.7 62L29.5 56.3L29.6 56.1V55.9V17.9H34.6H35L35.2 17.6L39 13.5L39.2 13.3V13V0.8V0H39.4Z" fill="black"/>
<path d="M13.9 55.5V13.4H4.29999V0.4H39V13.4H29.4V55.5H13.9Z" fill="white"/>
<path d="M38.6 0.8V13H29V55.1H14.3V13H4.69999V0.8H38.6ZM39.4 0H38.6H4.69999H3.89999V0.8V13V13.8H4.69999H13.5V55.1V55.9H14.3H29H29.8V55.1V13.8H38.6H39.4V13V0.8V0Z" fill="black"/>
<path d="M171.4 60.7V4.7L175.4 0.4H190.6V42.3H206.6V55.2L202.6 60.7H171.4Z" fill="black"/>
<path d="M190.2 0.8V42.7H206.2V55L202.4 60.2H171.8V4.9L175.6 0.8H190.2ZM191 0H190.2H175.6H175.2L175 0.3L171.2 4.4L171 4.6V4.9V60.3V61.1H171.8H202.4H202.8L203 60.8L206.8 55.6L207 55.4V55V42.7V41.9H206.2H191V0.8V0Z" fill="black"/>
<path d="M175.8 55.4V0.4H191.2V42.4H206.2V55.4H175.8Z" fill="white"/>
<path d="M190.8 0.8V42.8H205.7V55H176.1V0.8H190.8ZM191.6 0H190.8H176.2H175.4V0.8V55V55.8H176.2H205.8H206.6V55V42.9V42H205.8H191.7V0.8V0H191.6Z" fill="black"/>
<path d="M245.2 57.7V5.2L250.8 0.4H284.7V17.5L280.5 21L284.7 24.4V50.2L279.1 57.7H245.2Z" fill="black"/>
<path d="M284.3 0.8V17.3L279.9 20.9L284.3 24.5V50L278.9 57.3H245.6V5.4L251 0.8H284.3ZM285.1 0H284.3H251H250.7L250.5 0.2L245.1 4.8L244.8 5V5.4V57.3V58.1H245.6H278.9H279.3L279.5 57.8L284.9 50.5L285.1 50.3V50V24.6V24.2L284.8 24L281.2 21L284.8 18L285.1 17.8V17.4V0.8V0Z" fill="black"/>
<path d="M251.2 49.9V0.4H284.5V17.5L281.1 20.9L284.5 24.3V49.8H251.2V49.9ZM271.2 37.5V30.3H266.6V37.5H271.2ZM271.2 20V12.8H266.6V20H271.2Z" fill="white"/>
<path d="M284.1 0.8V17.3L280.5 20.9L284.1 24.5V49.5H251.6V0.8H284.1ZM266.2 20.5H271.6V12.5H266.2V20.5ZM266.2 37.9H271.6V29.9H266.2V37.9ZM285 0H284.2H251.7H250.9V0.8V49.5V50.3H251.7H284.2H285V49.5V24.5V24.2L284.8 24L281.8 21L284.8 18L285 17.8V17.5V0.8V0ZM267.1 13.2H270.9V19.6H267.1V13.2ZM267.1 30.7H270.9V37.1H267.1V30.7Z" fill="black"/>
</g>
<defs>
<clipPath id="clip0_0_1">
<rect width="285" height="62" fill="white"/>
</clipPath>
</defs>
</svg>
